<?xml version="1.0" encoding="UTF-8" standalone="no"?>
<svg
   viewBox="0 0 629.59782 188.9253"
   width="629.59784"
   height="188.92529"
   version="1.1"
   id="svg2232"
   inkscape:version="1.2.2 (b0a8486541, 2022-12-01)"
   sodipodi:docname="mainlogo.svg"
   xmlns:inkscape="http://www.inkscape.org/namespaces/inkscape"
   xmlns:sodipodi="http://sodipodi.sourceforge.net/DTD/sodipodi-0.dtd"
   xmlns:xlink="http://www.w3.org/1999/xlink"
   xmlns="http://www.w3.org/2000/svg"
   xmlns:svg="http://www.w3.org/2000/svg">
  <sodipodi:namedview
     id="namedview2234"
     pagecolor="#ffffff"
     bordercolor="#000000"
     borderopacity="0.25"
     inkscape:showpageshadow="2"
     inkscape:pageopacity="0.0"
     inkscape:pagecheckerboard="0"
     inkscape:deskcolor="#d1d1d1"
     showgrid="false"
     inkscape:zoom="2"
     inkscape:cx="251"
     inkscape:cy="36.25"
     inkscape:window-width="1920"
     inkscape:window-height="1001"
     inkscape:window-x="-9"
     inkscape:window-y="-9"
     inkscape:window-maximized="1"
     inkscape:current-layer="g2230" />
  <desc
     id="desc2121">mainlogo.dxf - scale = 1.000000, origin = (0.000000, 0.000000), method = manual</desc>
  <defs
     id="defs2136">
    <linearGradient
       inkscape:collect="always"
       id="linearGradient1096">
      <stop
         style="stop-color:#ffff8a;stop-opacity:1;"
         offset="0"
         id="stop1092" />
      <stop
         style="stop-color:#ff8a8a;stop-opacity:1;"
         offset="1"
         id="stop1094" />
    </linearGradient>
    <linearGradient
       inkscape:collect="always"
       id="linearGradient8114">
      <stop
         style="stop-color:#ffff8a;stop-opacity:1;"
         offset="0"
         id="stop8110" />
      <stop
         style="stop-color:#8aff8a;stop-opacity:1;"
         offset="1"
         id="stop8112" />
    </linearGradient>
    <linearGradient
       inkscape:collect="always"
       id="linearGradient7386">
      <stop
         style="stop-color:#8aff8a;stop-opacity:1;"
         offset="0"
         id="stop7382" />
      <stop
         style="stop-color:#8a8aff;stop-opacity:1;"
         offset="1"
         id="stop7384" />
    </linearGradient>
    <marker
       id="DistanceX"
       orient="auto"
       refX="0"
       refY="0"
       style="overflow:visible">
      <path
         d="M 3,-3 -3,3 M 0,-5 V 5"
         style="stroke:#000000;stroke-width:0.5"
         id="path2123" />
    </marker>
    <pattern
       id="Hatch"
       patternUnits="userSpaceOnUse"
       width="8"
       height="8"
       x="0"
       y="0">
      <path
         d="M8 4 l-4,4"
         stroke="#000000"
         stroke-width="0.25"
         linecap="square"
         id="path2126" />
      <path
         d="M6 2 l-4,4"
         stroke="#000000"
         stroke-width="0.25"
         linecap="square"
         id="path2128" />
      <path
         d="M4 0 l-4,4"
         stroke="#000000"
         stroke-width="0.25"
         linecap="square"
         id="path2130" />
    </pattern>
    <symbol
       id="*Model_Space" />
    <symbol
       id="*Paper_Space" />
    <symbol
       id="*Paper_Space0" />
    <linearGradient
       inkscape:collect="always"
       xlink:href="#linearGradient7386"
       id="linearGradient7388"
       x1="107.5"
       y1="177"
       x2="179.5"
       y2="52"
       gradientUnits="userSpaceOnUse" />
    <linearGradient
       inkscape:collect="always"
       xlink:href="#linearGradient8114"
       id="linearGradient8116"
       x1="23"
       y1="118"
       x2="88"
       y2="180.5"
       gradientUnits="userSpaceOnUse" />
    <linearGradient
       inkscape:collect="always"
       xlink:href="#linearGradient1096"
       id="linearGradient1098"
       x1="6.8265586"
       y1="89.765587"
       x2="170.75575"
       y2="6.2655869"
       gradientUnits="userSpaceOnUse" />
  </defs>
  <g
     inkscape:groupmode="layer"
     inkscape:label="0"
     id="g2230"
     transform="translate(0,-933.59436)">
    <path
       style="fill:url(#linearGradient1098);stroke-width:0;fill-opacity:1;stroke:#000000;stroke-opacity:1;stroke-dasharray:none;stroke-dashoffset:0"
       d="M 4.8265587,48.265587 V 4.8265587 H 92.04116 179.25576 L 135.83315,48.265587 92.410542,91.704615 H 48.618551 4.8265587 Z"
       id="path3004"
       transform="translate(0,933.59436)" />
    <path
       style="fill:url(#linearGradient8116);stroke-width:1;fill-opacity:1"
       d="M 4.8265587,140.65971 V 97.220683 H 48.265587 91.704615 v 43.439027 43.43903 H 48.265587 4.8265587 Z"
       id="path3144"
       transform="translate(0,933.59436)" />
    <path
       style="fill:url(#linearGradient7388);stroke-width:1;fill-opacity:1"
       d="M 97.220683,140.30675 V 96.514756 L 140.65971,53.092146 184.09874,9.6695353 V 96.884138 184.09874 H 140.65971 97.220683 Z"
       id="path3146"
       transform="translate(0,933.59436)" />
    <path
       style="fill:#ffffff;stroke-width:1"
       d="M 202.02596,94.462649 V 14.479676 h 79.98297 79.98297 v 21.37476 21.37476 h -58.60821 -58.60821 v 19.995743 19.995744 h 33.78591 33.78591 v 21.374757 21.37476 h -33.78591 -33.78591 v 17.23771 17.23771 h -21.37476 -21.37476 z"
       id="path3148"
       transform="translate(0,933.59436)" />
    <path
       style="fill:#ffffff;stroke-width:1"
       d="m 363.35092,94.839551 34.26132,-79.670366 h 23.12913 23.12913 l 33.50889,77.905419 c 18.4299,42.847976 33.80813,78.685176 34.17385,79.638216 0.51751,1.34864 -4.46645,1.7328 -22.48078,1.7328 h -23.14569 l -6.67292,-15.51394 c -3.6701,-8.53266 -7.28344,-16.3015 -8.02963,-17.26407 -1.03824,-1.33932 -8.34722,-1.66302 -31.13729,-1.37902 l -29.78057,0.37112 -7.19364,16.5482 -7.19364,16.5482 -23.41474,0.3769 -23.41475,0.3769 z"
       id="path3150"
       transform="translate(0,933.59436)" />
    <path
       style="fill:#ffffff;stroke-width:1"
       d="M 504.03063,66.192805 V 14.479676 h 10.34263 10.34262 v 51.713129 51.713125 h -10.34262 -10.34263 z"
       id="path3152"
       transform="translate(0,933.59436)" />
    <path
       style="fill:#ffffff;stroke-width:1"
       d="M 549.53818,66.192805 V 14.479676 h 9.65312 9.65312 v 51.713129 51.713125 h -9.65312 -9.65312 z"
       id="path3154"
       transform="translate(0,933.59436)" />
    <path
       style="fill:#ffffff;stroke-width:1"
       d="M 595.04574,66.192805 V 14.479676 h 9.65312 9.65311 v 51.713129 51.713125 h -9.65311 -9.65312 z"
       id="path3156"
       transform="translate(0,933.59436)" />
  </g>
</svg>
