<?xml version="1.0" encoding="UTF-8" standalone="no"?>
<!-- Created with Inkscape (http://www.inkscape.org/) -->

<svg
   width="25.250195mm"
   height="25.278597mm"
   viewBox="0 0 25.250194 25.278597"
   version="1.1"
   id="svg5"
   xml:space="preserve"
   inkscape:version="1.2.2 (b0a8486541, 2022-12-01)"
   sodipodi:docname="plan.svg"
   xmlns:inkscape="http://www.inkscape.org/namespaces/inkscape"
   xmlns:sodipodi="http://sodipodi.sourceforge.net/DTD/sodipodi-0.dtd"
   xmlns:xlink="http://www.w3.org/1999/xlink"
   xmlns="http://www.w3.org/2000/svg"
   xmlns:svg="http://www.w3.org/2000/svg"><sodipodi:namedview
     id="namedview7"
     pagecolor="#ffffff"
     bordercolor="#000000"
     borderopacity="0.25"
     inkscape:showpageshadow="2"
     inkscape:pageopacity="0.0"
     inkscape:pagecheckerboard="0"
     inkscape:deskcolor="#d1d1d1"
     inkscape:document-units="mm"
     showgrid="false"
     inkscape:zoom="8.268688"
     inkscape:cx="30.41595"
     inkscape:cy="47.58917"
     inkscape:window-width="1920"
     inkscape:window-height="1001"
     inkscape:window-x="-9"
     inkscape:window-y="-9"
     inkscape:window-maximized="1"
     inkscape:current-layer="layer1" /><defs
     id="defs2"><linearGradient
       inkscape:collect="always"
       id="linearGradient25012"><stop
         style="stop-color:#e9afc6;stop-opacity:1;"
         offset="0"
         id="stop25008" /><stop
         style="stop-color:#ffd5d5;stop-opacity:1"
         offset="1"
         id="stop25010" /></linearGradient><linearGradient
       inkscape:collect="always"
       id="linearGradient22272"><stop
         style="stop-color:#e9afc6;stop-opacity:1;"
         offset="0"
         id="stop22268" /><stop
         style="stop-color:#ffd5d5;stop-opacity:1"
         offset="1"
         id="stop22270" /></linearGradient><marker
       id="DistanceX"
       orient="auto"
       refX="0"
       refY="0"
       style="overflow:visible"><path
         d="M 3,-3 -3,3 M 0,-5 V 5"
         style="stroke:#000000;stroke-width:0.5"
         id="path134" /></marker><pattern
       id="Hatch"
       patternUnits="userSpaceOnUse"
       width="8"
       height="8"
       x="0"
       y="0"><path
         d="M8 4 l-4,4"
         stroke="#000000"
         stroke-width="0.25"
         linecap="square"
         id="path137" /><path
         d="M6 2 l-4,4"
         stroke="#000000"
         stroke-width="0.25"
         linecap="square"
         id="path139" /><path
         d="M4 0 l-4,4"
         stroke="#000000"
         stroke-width="0.25"
         linecap="square"
         id="path141" /></pattern><symbol
       id="*Model_Space" /><symbol
       id="*Paper_Space" /><symbol
       id="*Paper_Space0" /><marker
       id="DistanceX-1"
       orient="auto"
       refX="0.0"
       refY="0.0"
       style="overflow:visible"><path
         d="M 3,-3 L -3,3 M 0,-5 L  0,5"
         style="stroke:#000000; stroke-width:0.5"
         id="path1130" /></marker><pattern
       id="Hatch-3"
       patternUnits="userSpaceOnUse"
       width="8"
       height="8"
       x="0"
       y="0"><path
         d="M8 4 l-4,4"
         stroke="#000000"
         stroke-width="0.25"
         linecap="square"
         id="path1133" /><path
         d="M6 2 l-4,4"
         stroke="#000000"
         stroke-width="0.25"
         linecap="square"
         id="path1135" /><path
         d="M4 0 l-4,4"
         stroke="#000000"
         stroke-width="0.25"
         linecap="square"
         id="path1137" /></pattern><symbol
       id="*Model_Space-7" /><symbol
       id="*Paper_Space-3" /><symbol
       id="*Paper_Space0-3" /><marker
       id="DistanceX-3"
       orient="auto"
       refX="0.0"
       refY="0.0"
       style="overflow:visible"><path
         d="M 3,-3 L -3,3 M 0,-5 L  0,5"
         style="stroke:#000000; stroke-width:0.5"
         id="path1617" /></marker><pattern
       id="Hatch-1"
       patternUnits="userSpaceOnUse"
       width="8"
       height="8"
       x="0"
       y="0"><path
         d="M8 4 l-4,4"
         stroke="#000000"
         stroke-width="0.25"
         linecap="square"
         id="path1620" /><path
         d="M6 2 l-4,4"
         stroke="#000000"
         stroke-width="0.25"
         linecap="square"
         id="path1622" /><path
         d="M4 0 l-4,4"
         stroke="#000000"
         stroke-width="0.25"
         linecap="square"
         id="path1624" /></pattern><symbol
       id="*Model_Space-9" /><symbol
       id="*Paper_Space-4" /><symbol
       id="*Paper_Space0-5" /><marker
       id="DistanceX-2"
       orient="auto"
       refX="0.0"
       refY="0.0"
       style="overflow:visible"><path
         d="M 3,-3 L -3,3 M 0,-5 L  0,5"
         style="stroke:#000000; stroke-width:0.5"
         id="path1916" /></marker><pattern
       id="Hatch-5"
       patternUnits="userSpaceOnUse"
       width="8"
       height="8"
       x="0"
       y="0"><path
         d="M8 4 l-4,4"
         stroke="#000000"
         stroke-width="0.25"
         linecap="square"
         id="path1919" /><path
         d="M6 2 l-4,4"
         stroke="#000000"
         stroke-width="0.25"
         linecap="square"
         id="path1921" /><path
         d="M4 0 l-4,4"
         stroke="#000000"
         stroke-width="0.25"
         linecap="square"
         id="path1923" /></pattern><symbol
       id="*Model_Space-8" /><symbol
       id="*Paper_Space-33" /><symbol
       id="*Paper_Space0-9" /><marker
       id="DistanceX-0"
       orient="auto"
       refX="0.0"
       refY="0.0"
       style="overflow:visible"><path
         d="M 3,-3 L -3,3 M 0,-5 L  0,5"
         style="stroke:#000000; stroke-width:0.5"
         id="path2166" /></marker><pattern
       id="Hatch-9"
       patternUnits="userSpaceOnUse"
       width="8"
       height="8"
       x="0"
       y="0"><path
         d="M8 4 l-4,4"
         stroke="#000000"
         stroke-width="0.25"
         linecap="square"
         id="path2169" /><path
         d="M6 2 l-4,4"
         stroke="#000000"
         stroke-width="0.25"
         linecap="square"
         id="path2171" /><path
         d="M4 0 l-4,4"
         stroke="#000000"
         stroke-width="0.25"
         linecap="square"
         id="path2173" /></pattern><symbol
       id="*Model_Space-79" /><symbol
       id="*Paper_Space-7" /><symbol
       id="*Paper_Space0-6" /><marker
       id="DistanceX-8"
       orient="auto"
       refX="0.0"
       refY="0.0"
       style="overflow:visible"><path
         d="M 3,-3 L -3,3 M 0,-5 L  0,5"
         style="stroke:#000000; stroke-width:0.5"
         id="path2418" /></marker><pattern
       id="Hatch-32"
       patternUnits="userSpaceOnUse"
       width="8"
       height="8"
       x="0"
       y="0"><path
         d="M8 4 l-4,4"
         stroke="#000000"
         stroke-width="0.25"
         linecap="square"
         id="path2421" /><path
         d="M6 2 l-4,4"
         stroke="#000000"
         stroke-width="0.25"
         linecap="square"
         id="path2423" /><path
         d="M4 0 l-4,4"
         stroke="#000000"
         stroke-width="0.25"
         linecap="square"
         id="path2425" /></pattern><symbol
       id="*Model_Space-75" /><symbol
       id="*Paper_Space-2" /><symbol
       id="*Paper_Space0-7" /><marker
       id="DistanceX-7"
       orient="auto"
       refX="0.0"
       refY="0.0"
       style="overflow:visible"><path
         d="M 3,-3 L -3,3 M 0,-5 L  0,5"
         style="stroke:#000000; stroke-width:0.5"
         id="path2771" /></marker><pattern
       id="Hatch-2"
       patternUnits="userSpaceOnUse"
       width="8"
       height="8"
       x="0"
       y="0"><path
         d="M8 4 l-4,4"
         stroke="#000000"
         stroke-width="0.25"
         linecap="square"
         id="path2774" /><path
         d="M6 2 l-4,4"
         stroke="#000000"
         stroke-width="0.25"
         linecap="square"
         id="path2776" /><path
         d="M4 0 l-4,4"
         stroke="#000000"
         stroke-width="0.25"
         linecap="square"
         id="path2778" /></pattern><symbol
       id="*Model_Space-792" /><symbol
       id="*Paper_Space-9" /><symbol
       id="*Paper_Space0-93" /><marker
       id="DistanceX-03"
       orient="auto"
       refX="0.0"
       refY="0.0"
       style="overflow:visible"><path
         d="M 3,-3 L -3,3 M 0,-5 L  0,5"
         style="stroke:#000000; stroke-width:0.5"
         id="path397" /></marker><pattern
       id="Hatch-6"
       patternUnits="userSpaceOnUse"
       width="8"
       height="8"
       x="0"
       y="0"><path
         d="M8 4 l-4,4"
         stroke="#000000"
         stroke-width="0.25"
         linecap="square"
         id="path400" /><path
         d="M6 2 l-4,4"
         stroke="#000000"
         stroke-width="0.25"
         linecap="square"
         id="path402" /><path
         d="M4 0 l-4,4"
         stroke="#000000"
         stroke-width="0.25"
         linecap="square"
         id="path404" /></pattern><symbol
       id="*Model_Space-2" /><symbol
       id="*Paper_Space-6" /><symbol
       id="*Paper_Space0-68" /><marker
       id="DistanceX-80"
       orient="auto"
       refX="0.0"
       refY="0.0"
       style="overflow:visible"><path
         d="M 3,-3 L -3,3 M 0,-5 L  0,5"
         style="stroke:#000000; stroke-width:0.5"
         id="path505" /></marker><pattern
       id="Hatch-54"
       patternUnits="userSpaceOnUse"
       width="8"
       height="8"
       x="0"
       y="0"><path
         d="M8 4 l-4,4"
         stroke="#000000"
         stroke-width="0.25"
         linecap="square"
         id="path508" /><path
         d="M6 2 l-4,4"
         stroke="#000000"
         stroke-width="0.25"
         linecap="square"
         id="path510" /><path
         d="M4 0 l-4,4"
         stroke="#000000"
         stroke-width="0.25"
         linecap="square"
         id="path512" /></pattern><symbol
       id="*Model_Space-74" /><symbol
       id="*Paper_Space-96" /><symbol
       id="*Paper_Space0-1" /><marker
       id="DistanceX-77"
       orient="auto"
       refX="0.0"
       refY="0.0"
       style="overflow:visible"><path
         d="M 3,-3 L -3,3 M 0,-5 L  0,5"
         style="stroke:#000000; stroke-width:0.5"
         id="path8445" /></marker><pattern
       id="Hatch-37"
       patternUnits="userSpaceOnUse"
       width="8"
       height="8"
       x="0"
       y="0"><path
         d="M8 4 l-4,4"
         stroke="#000000"
         stroke-width="0.25"
         linecap="square"
         id="path8448" /><path
         d="M6 2 l-4,4"
         stroke="#000000"
         stroke-width="0.25"
         linecap="square"
         id="path8450" /><path
         d="M4 0 l-4,4"
         stroke="#000000"
         stroke-width="0.25"
         linecap="square"
         id="path8452" /></pattern><symbol
       id="*Model_Space-84" /><symbol
       id="*Paper_Space-0" /><symbol
       id="*Paper_Space0-30" /><marker
       id="DistanceX-24"
       orient="auto"
       refX="0.0"
       refY="0.0"
       style="overflow:visible"><path
         d="M 3,-3 L -3,3 M 0,-5 L  0,5"
         style="stroke:#000000; stroke-width:0.5"
         id="path10544" /></marker><pattern
       id="Hatch-58"
       patternUnits="userSpaceOnUse"
       width="8"
       height="8"
       x="0"
       y="0"><path
         d="M8 4 l-4,4"
         stroke="#000000"
         stroke-width="0.25"
         linecap="square"
         id="path10547" /><path
         d="M6 2 l-4,4"
         stroke="#000000"
         stroke-width="0.25"
         linecap="square"
         id="path10549" /><path
         d="M4 0 l-4,4"
         stroke="#000000"
         stroke-width="0.25"
         linecap="square"
         id="path10551" /></pattern><symbol
       id="*Model_Space-1" /><symbol
       id="*Paper_Space-37" /><symbol
       id="*Paper_Space0-18" /><marker
       id="DistanceX-30"
       orient="auto"
       refX="0.0"
       refY="0.0"
       style="overflow:visible"><path
         d="M 3,-3 L -3,3 M 0,-5 L  0,5"
         style="stroke:#000000; stroke-width:0.5"
         id="path12601" /></marker><pattern
       id="Hatch-541"
       patternUnits="userSpaceOnUse"
       width="8"
       height="8"
       x="0"
       y="0"><path
         d="M8 4 l-4,4"
         stroke="#000000"
         stroke-width="0.25"
         linecap="square"
         id="path12604" /><path
         d="M6 2 l-4,4"
         stroke="#000000"
         stroke-width="0.25"
         linecap="square"
         id="path12606" /><path
         d="M4 0 l-4,4"
         stroke="#000000"
         stroke-width="0.25"
         linecap="square"
         id="path12608" /></pattern><symbol
       id="*Model_Space-0" /><symbol
       id="*Paper_Space-22" /><symbol
       id="*Paper_Space0-90" /><marker
       id="DistanceX-79"
       orient="auto"
       refX="0.0"
       refY="0.0"
       style="overflow:visible"><path
         d="M 3,-3 L -3,3 M 0,-5 L  0,5"
         style="stroke:#000000; stroke-width:0.5"
         id="path21536" /></marker><pattern
       id="Hatch-7"
       patternUnits="userSpaceOnUse"
       width="8"
       height="8"
       x="0"
       y="0"><path
         d="M8 4 l-4,4"
         stroke="#000000"
         stroke-width="0.25"
         linecap="square"
         id="path21539" /><path
         d="M6 2 l-4,4"
         stroke="#000000"
         stroke-width="0.25"
         linecap="square"
         id="path21541" /><path
         d="M4 0 l-4,4"
         stroke="#000000"
         stroke-width="0.25"
         linecap="square"
         id="path21543" /></pattern><symbol
       id="*Model_Space-3" /><symbol
       id="*Paper_Space-75" /><symbol
       id="*Paper_Space0-301" /><linearGradient
       inkscape:collect="always"
       xlink:href="#linearGradient22272"
       id="linearGradient22274"
       x1="140.037"
       y1="21.288973"
       x2="117.63824"
       y2="43.879719"
       gradientUnits="userSpaceOnUse" /><linearGradient
       inkscape:collect="always"
       xlink:href="#linearGradient25012"
       id="linearGradient22354"
       x1="90.098938"
       y1="5.4422178"
       x2="5.4422178"
       y2="90.82457"
       gradientUnits="userSpaceOnUse" /></defs><g
     inkscape:label="Layer 1"
     inkscape:groupmode="layer"
     id="layer1"
     transform="translate(-116.19832,-19.849053)"><path
       style="fill:#ffffff;stroke:#000000;stroke-width:0;stroke-dasharray:none;stroke-dashoffset:0"
       d="m 12.033339,64.520505 -3.6266428,-3.628155 1.2385063,-1.238506 1.2385065,-1.238506 1.846089,1.843206 c 1.015348,1.013764 1.907129,1.843207 1.981734,1.843207 0.07461,0 1.104497,-1.959199 2.288649,-4.353775 l 2.153003,-4.353774 h 1.973003 c 1.085152,0 1.973004,0.02709 1.973004,0.06021 0,0.119711 -7.317416,14.694251 -7.377519,14.694251 -0.03393,0 -1.69368,-1.632669 -3.688333,-3.628154 z"
       id="path11197"
       transform="matrix(0.26458333,0,0,0.26458333,116.19832,19.849053)" /><path
       style="fill:#ffffff;stroke:#000000;stroke-width:0;stroke-dasharray:none;stroke-dashoffset:0"
       d="m 12.033339,19.168691 -3.6266428,-3.628155 1.2385063,-1.238506 1.2385065,-1.238506 1.86345,1.860541 c 1.149997,1.148201 1.927494,1.835965 2.030723,1.796352 0.092,-0.0353 1.11757,-2.002216 2.279045,-4.370916 L 19.1687,8.042773 21.133945,8.0425807 c 1.080885,-1.058e-4 1.965246,0.0269 1.965246,0.060013 0,0.1197117 -7.317416,14.6942513 -7.377519,14.6942513 -0.03393,0 -1.69368,-1.632669 -3.688333,-3.628154 z"
       id="path11199"
       transform="matrix(0.26458333,0,0,0.26458333,116.19832,19.849053)" /><path
       style="fill:url(#linearGradient22274);stroke:#000000;stroke-width:0;stroke-dasharray:none;stroke-dashoffset:0;fill-opacity:1"
       d="m 117.31826,34.552237 v -4.543748 h 4.14377 4.14377 v -1.023943 -1.023943 h -4.14377 -4.14377 V 27.49693 27.033257 l 1.57591,-0.0083 1.57591,-0.0083 0.008,-1.031943 0.008,-1.031943 h -1.58436 -1.58435 v -0.463973 -0.463975 h 6.76762 6.76763 v -1.039942 -1.039942 h -6.76763 -6.76762 V 21.480964 21.01699 h 11.48736 11.48736 v 3.789633 c 0,3.581629 -0.003,3.790529 -0.056,3.805945 -0.0308,0.009 -1.03628,0.177242 -2.2344,0.373934 l -2.17839,0.357622 -1.40058,2.1562 -1.40058,2.156199 -0.1821,-0.152109 c -1.07615,-0.898908 -1.96784,-1.624027 -1.9971,-1.624027 -0.0274,0 -3.25779,4.446373 -3.3779,4.649398 -0.0186,0.03137 -0.24874,-0.06147 -0.93227,-0.37598 -0.49919,-0.229697 -0.94912,-0.417632 -0.99984,-0.417632 -0.0507,0 -1.21527,0.158003 -2.58789,0.351117 l -2.49567,0.351116 -1.54958,1.32879 c -0.85227,0.730835 -1.55697,1.328791 -1.56601,1.328791 -0.009,0 -0.0164,-2.044687 -0.0164,-4.543748 z"
       id="path22264" /><path
       style="fill:url(#linearGradient22354);stroke:#000000;stroke-width:0;stroke-dasharray:none;stroke-dashoffset:0;fill-opacity:1"
       d="M 4.3537741,84.620211 V 78.11351 l 6.7805109,-5.798758 c 3.729282,-3.189318 6.81774,-5.810568 6.863241,-5.825001 0.191978,-0.0609 16.566375,-2.332051 16.81344,-2.332051 0.149127,0 2.230723,0.897965 4.625769,1.995479 2.395048,1.097514 4.396581,1.99548 4.447851,1.99548 0.05127,0 2.831658,-3.809552 6.178642,-8.465672 3.346982,-4.656119 6.109346,-8.465672 6.138588,-8.465672 0.02924,0 1.901234,1.528904 4.159983,3.397563 2.25875,1.86866 4.176297,3.370902 4.261216,3.338315 0.08492,-0.03259 2.838891,-4.189867 6.119936,-9.238401 l 5.965538,-9.179152 6.906866,-1.136179 c 3.798776,-0.624898 7.056527,-1.159184 7.239446,-1.187302 l 0.33258,-0.05112 V 64.143973 91.126912 H 47.770577 4.3537741 Z"
       id="path22266"
       transform="matrix(0.26458333,0,0,0.26458333,116.19832,19.849053)" /></g></svg>
