<?xml version="1.0" encoding="UTF-8" standalone="no"?>
<!-- Created with Inkscape (http://www.inkscape.org/) -->

<svg
   width="25.250195mm"
   height="25.278597mm"
   viewBox="0 0 25.250194 25.278597"
   version="1.1"
   id="svg5"
   xml:space="preserve"
   inkscape:version="1.2.2 (b0a8486541, 2022-12-01)"
   sodipodi:docname="cnc.svg"
   xmlns:inkscape="http://www.inkscape.org/namespaces/inkscape"
   xmlns:sodipodi="http://sodipodi.sourceforge.net/DTD/sodipodi-0.dtd"
   xmlns:xlink="http://www.w3.org/1999/xlink"
   xmlns="http://www.w3.org/2000/svg"
   xmlns:svg="http://www.w3.org/2000/svg"><sodipodi:namedview
     id="namedview7"
     pagecolor="#ffffff"
     bordercolor="#000000"
     borderopacity="0.25"
     inkscape:showpageshadow="2"
     inkscape:pageopacity="0.0"
     inkscape:pagecheckerboard="0"
     inkscape:deskcolor="#d1d1d1"
     inkscape:document-units="mm"
     showgrid="false"
     inkscape:zoom="8.268688"
     inkscape:cx="32.955651"
     inkscape:cy="47.58917"
     inkscape:window-width="1920"
     inkscape:window-height="1001"
     inkscape:window-x="-9"
     inkscape:window-y="-9"
     inkscape:window-maximized="1"
     inkscape:current-layer="layer1" /><defs
     id="defs2"><linearGradient
       inkscape:collect="always"
       id="linearGradient60747"><stop
         style="stop-color:#2ad4ff;stop-opacity:1;"
         offset="0"
         id="stop60743" /><stop
         style="stop-color:#d5fff6;stop-opacity:1"
         offset="1"
         id="stop60745" /></linearGradient><linearGradient
       inkscape:collect="always"
       id="linearGradient60741"><stop
         style="stop-color:#2ad4ff;stop-opacity:1;"
         offset="0"
         id="stop60737" /><stop
         style="stop-color:#d5fff6;stop-opacity:1"
         offset="1"
         id="stop60739" /></linearGradient><linearGradient
       inkscape:collect="always"
       id="linearGradient60735"><stop
         style="stop-color:#2ad4ff;stop-opacity:1;"
         offset="0"
         id="stop60731" /><stop
         style="stop-color:#d5fff6;stop-opacity:1"
         offset="1"
         id="stop60733" /></linearGradient><linearGradient
       inkscape:collect="always"
       id="linearGradient56845"><stop
         style="stop-color:#2ad4ff;stop-opacity:1;"
         offset="0"
         id="stop56841" /><stop
         style="stop-color:#d5fff6;stop-opacity:1"
         offset="1"
         id="stop56843" /></linearGradient><marker
       id="DistanceX"
       orient="auto"
       refX="0"
       refY="0"
       style="overflow:visible"><path
         d="M 3,-3 -3,3 M 0,-5 V 5"
         style="stroke:#000000;stroke-width:0.5"
         id="path134" /></marker><pattern
       id="Hatch"
       patternUnits="userSpaceOnUse"
       width="8"
       height="8"
       x="0"
       y="0"><path
         d="M8 4 l-4,4"
         stroke="#000000"
         stroke-width="0.25"
         linecap="square"
         id="path137" /><path
         d="M6 2 l-4,4"
         stroke="#000000"
         stroke-width="0.25"
         linecap="square"
         id="path139" /><path
         d="M4 0 l-4,4"
         stroke="#000000"
         stroke-width="0.25"
         linecap="square"
         id="path141" /></pattern><symbol
       id="*Model_Space" /><symbol
       id="*Paper_Space" /><symbol
       id="*Paper_Space0" /><marker
       id="DistanceX-1"
       orient="auto"
       refX="0.0"
       refY="0.0"
       style="overflow:visible"><path
         d="M 3,-3 L -3,3 M 0,-5 L  0,5"
         style="stroke:#000000; stroke-width:0.5"
         id="path1130" /></marker><pattern
       id="Hatch-3"
       patternUnits="userSpaceOnUse"
       width="8"
       height="8"
       x="0"
       y="0"><path
         d="M8 4 l-4,4"
         stroke="#000000"
         stroke-width="0.25"
         linecap="square"
         id="path1133" /><path
         d="M6 2 l-4,4"
         stroke="#000000"
         stroke-width="0.25"
         linecap="square"
         id="path1135" /><path
         d="M4 0 l-4,4"
         stroke="#000000"
         stroke-width="0.25"
         linecap="square"
         id="path1137" /></pattern><symbol
       id="*Model_Space-7" /><symbol
       id="*Paper_Space-3" /><symbol
       id="*Paper_Space0-3" /><marker
       id="DistanceX-3"
       orient="auto"
       refX="0.0"
       refY="0.0"
       style="overflow:visible"><path
         d="M 3,-3 L -3,3 M 0,-5 L  0,5"
         style="stroke:#000000; stroke-width:0.5"
         id="path1617" /></marker><pattern
       id="Hatch-1"
       patternUnits="userSpaceOnUse"
       width="8"
       height="8"
       x="0"
       y="0"><path
         d="M8 4 l-4,4"
         stroke="#000000"
         stroke-width="0.25"
         linecap="square"
         id="path1620" /><path
         d="M6 2 l-4,4"
         stroke="#000000"
         stroke-width="0.25"
         linecap="square"
         id="path1622" /><path
         d="M4 0 l-4,4"
         stroke="#000000"
         stroke-width="0.25"
         linecap="square"
         id="path1624" /></pattern><symbol
       id="*Model_Space-9" /><symbol
       id="*Paper_Space-4" /><symbol
       id="*Paper_Space0-5" /><marker
       id="DistanceX-2"
       orient="auto"
       refX="0.0"
       refY="0.0"
       style="overflow:visible"><path
         d="M 3,-3 L -3,3 M 0,-5 L  0,5"
         style="stroke:#000000; stroke-width:0.5"
         id="path1916" /></marker><pattern
       id="Hatch-5"
       patternUnits="userSpaceOnUse"
       width="8"
       height="8"
       x="0"
       y="0"><path
         d="M8 4 l-4,4"
         stroke="#000000"
         stroke-width="0.25"
         linecap="square"
         id="path1919" /><path
         d="M6 2 l-4,4"
         stroke="#000000"
         stroke-width="0.25"
         linecap="square"
         id="path1921" /><path
         d="M4 0 l-4,4"
         stroke="#000000"
         stroke-width="0.25"
         linecap="square"
         id="path1923" /></pattern><symbol
       id="*Model_Space-8" /><symbol
       id="*Paper_Space-33" /><symbol
       id="*Paper_Space0-9" /><marker
       id="DistanceX-0"
       orient="auto"
       refX="0.0"
       refY="0.0"
       style="overflow:visible"><path
         d="M 3,-3 L -3,3 M 0,-5 L  0,5"
         style="stroke:#000000; stroke-width:0.5"
         id="path2166" /></marker><pattern
       id="Hatch-9"
       patternUnits="userSpaceOnUse"
       width="8"
       height="8"
       x="0"
       y="0"><path
         d="M8 4 l-4,4"
         stroke="#000000"
         stroke-width="0.25"
         linecap="square"
         id="path2169" /><path
         d="M6 2 l-4,4"
         stroke="#000000"
         stroke-width="0.25"
         linecap="square"
         id="path2171" /><path
         d="M4 0 l-4,4"
         stroke="#000000"
         stroke-width="0.25"
         linecap="square"
         id="path2173" /></pattern><symbol
       id="*Model_Space-79" /><symbol
       id="*Paper_Space-7" /><symbol
       id="*Paper_Space0-6" /><marker
       id="DistanceX-8"
       orient="auto"
       refX="0.0"
       refY="0.0"
       style="overflow:visible"><path
         d="M 3,-3 L -3,3 M 0,-5 L  0,5"
         style="stroke:#000000; stroke-width:0.5"
         id="path2418" /></marker><pattern
       id="Hatch-32"
       patternUnits="userSpaceOnUse"
       width="8"
       height="8"
       x="0"
       y="0"><path
         d="M8 4 l-4,4"
         stroke="#000000"
         stroke-width="0.25"
         linecap="square"
         id="path2421" /><path
         d="M6 2 l-4,4"
         stroke="#000000"
         stroke-width="0.25"
         linecap="square"
         id="path2423" /><path
         d="M4 0 l-4,4"
         stroke="#000000"
         stroke-width="0.25"
         linecap="square"
         id="path2425" /></pattern><symbol
       id="*Model_Space-75" /><symbol
       id="*Paper_Space-2" /><symbol
       id="*Paper_Space0-7" /><marker
       id="DistanceX-7"
       orient="auto"
       refX="0.0"
       refY="0.0"
       style="overflow:visible"><path
         d="M 3,-3 L -3,3 M 0,-5 L  0,5"
         style="stroke:#000000; stroke-width:0.5"
         id="path2771" /></marker><pattern
       id="Hatch-2"
       patternUnits="userSpaceOnUse"
       width="8"
       height="8"
       x="0"
       y="0"><path
         d="M8 4 l-4,4"
         stroke="#000000"
         stroke-width="0.25"
         linecap="square"
         id="path2774" /><path
         d="M6 2 l-4,4"
         stroke="#000000"
         stroke-width="0.25"
         linecap="square"
         id="path2776" /><path
         d="M4 0 l-4,4"
         stroke="#000000"
         stroke-width="0.25"
         linecap="square"
         id="path2778" /></pattern><symbol
       id="*Model_Space-792" /><symbol
       id="*Paper_Space-9" /><symbol
       id="*Paper_Space0-93" /><marker
       id="DistanceX-03"
       orient="auto"
       refX="0.0"
       refY="0.0"
       style="overflow:visible"><path
         d="M 3,-3 L -3,3 M 0,-5 L  0,5"
         style="stroke:#000000; stroke-width:0.5"
         id="path397" /></marker><pattern
       id="Hatch-6"
       patternUnits="userSpaceOnUse"
       width="8"
       height="8"
       x="0"
       y="0"><path
         d="M8 4 l-4,4"
         stroke="#000000"
         stroke-width="0.25"
         linecap="square"
         id="path400" /><path
         d="M6 2 l-4,4"
         stroke="#000000"
         stroke-width="0.25"
         linecap="square"
         id="path402" /><path
         d="M4 0 l-4,4"
         stroke="#000000"
         stroke-width="0.25"
         linecap="square"
         id="path404" /></pattern><symbol
       id="*Model_Space-2" /><symbol
       id="*Paper_Space-6" /><symbol
       id="*Paper_Space0-68" /><marker
       id="DistanceX-80"
       orient="auto"
       refX="0.0"
       refY="0.0"
       style="overflow:visible"><path
         d="M 3,-3 L -3,3 M 0,-5 L  0,5"
         style="stroke:#000000; stroke-width:0.5"
         id="path505" /></marker><pattern
       id="Hatch-54"
       patternUnits="userSpaceOnUse"
       width="8"
       height="8"
       x="0"
       y="0"><path
         d="M8 4 l-4,4"
         stroke="#000000"
         stroke-width="0.25"
         linecap="square"
         id="path508" /><path
         d="M6 2 l-4,4"
         stroke="#000000"
         stroke-width="0.25"
         linecap="square"
         id="path510" /><path
         d="M4 0 l-4,4"
         stroke="#000000"
         stroke-width="0.25"
         linecap="square"
         id="path512" /></pattern><symbol
       id="*Model_Space-74" /><symbol
       id="*Paper_Space-96" /><symbol
       id="*Paper_Space0-1" /><marker
       id="DistanceX-77"
       orient="auto"
       refX="0.0"
       refY="0.0"
       style="overflow:visible"><path
         d="M 3,-3 L -3,3 M 0,-5 L  0,5"
         style="stroke:#000000; stroke-width:0.5"
         id="path8445" /></marker><pattern
       id="Hatch-37"
       patternUnits="userSpaceOnUse"
       width="8"
       height="8"
       x="0"
       y="0"><path
         d="M8 4 l-4,4"
         stroke="#000000"
         stroke-width="0.25"
         linecap="square"
         id="path8448" /><path
         d="M6 2 l-4,4"
         stroke="#000000"
         stroke-width="0.25"
         linecap="square"
         id="path8450" /><path
         d="M4 0 l-4,4"
         stroke="#000000"
         stroke-width="0.25"
         linecap="square"
         id="path8452" /></pattern><symbol
       id="*Model_Space-84" /><symbol
       id="*Paper_Space-0" /><symbol
       id="*Paper_Space0-30" /><marker
       id="DistanceX-24"
       orient="auto"
       refX="0.0"
       refY="0.0"
       style="overflow:visible"><path
         d="M 3,-3 L -3,3 M 0,-5 L  0,5"
         style="stroke:#000000; stroke-width:0.5"
         id="path10544" /></marker><pattern
       id="Hatch-58"
       patternUnits="userSpaceOnUse"
       width="8"
       height="8"
       x="0"
       y="0"><path
         d="M8 4 l-4,4"
         stroke="#000000"
         stroke-width="0.25"
         linecap="square"
         id="path10547" /><path
         d="M6 2 l-4,4"
         stroke="#000000"
         stroke-width="0.25"
         linecap="square"
         id="path10549" /><path
         d="M4 0 l-4,4"
         stroke="#000000"
         stroke-width="0.25"
         linecap="square"
         id="path10551" /></pattern><symbol
       id="*Model_Space-1" /><symbol
       id="*Paper_Space-37" /><symbol
       id="*Paper_Space0-18" /><marker
       id="DistanceX-30"
       orient="auto"
       refX="0.0"
       refY="0.0"
       style="overflow:visible"><path
         d="M 3,-3 L -3,3 M 0,-5 L  0,5"
         style="stroke:#000000; stroke-width:0.5"
         id="path12601" /></marker><pattern
       id="Hatch-541"
       patternUnits="userSpaceOnUse"
       width="8"
       height="8"
       x="0"
       y="0"><path
         d="M8 4 l-4,4"
         stroke="#000000"
         stroke-width="0.25"
         linecap="square"
         id="path12604" /><path
         d="M6 2 l-4,4"
         stroke="#000000"
         stroke-width="0.25"
         linecap="square"
         id="path12606" /><path
         d="M4 0 l-4,4"
         stroke="#000000"
         stroke-width="0.25"
         linecap="square"
         id="path12608" /></pattern><symbol
       id="*Model_Space-0" /><symbol
       id="*Paper_Space-22" /><symbol
       id="*Paper_Space0-90" /><marker
       id="DistanceX-79"
       orient="auto"
       refX="0.0"
       refY="0.0"
       style="overflow:visible"><path
         d="M 3,-3 L -3,3 M 0,-5 L  0,5"
         style="stroke:#000000; stroke-width:0.5"
         id="path21536" /></marker><pattern
       id="Hatch-7"
       patternUnits="userSpaceOnUse"
       width="8"
       height="8"
       x="0"
       y="0"><path
         d="M8 4 l-4,4"
         stroke="#000000"
         stroke-width="0.25"
         linecap="square"
         id="path21539" /><path
         d="M6 2 l-4,4"
         stroke="#000000"
         stroke-width="0.25"
         linecap="square"
         id="path21541" /><path
         d="M4 0 l-4,4"
         stroke="#000000"
         stroke-width="0.25"
         linecap="square"
         id="path21543" /></pattern><symbol
       id="*Model_Space-3" /><symbol
       id="*Paper_Space-75" /><symbol
       id="*Paper_Space0-301" /><marker
       id="DistanceX-5"
       orient="auto"
       refX="0.0"
       refY="0.0"
       style="overflow:visible"><path
         d="M 3,-3 L -3,3 M 0,-5 L  0,5"
         style="stroke:#000000; stroke-width:0.5"
         id="path35177" /></marker><pattern
       id="Hatch-8"
       patternUnits="userSpaceOnUse"
       width="8"
       height="8"
       x="0"
       y="0"><path
         d="M8 4 l-4,4"
         stroke="#000000"
         stroke-width="0.25"
         linecap="square"
         id="path35180" /><path
         d="M6 2 l-4,4"
         stroke="#000000"
         stroke-width="0.25"
         linecap="square"
         id="path35182" /><path
         d="M4 0 l-4,4"
         stroke="#000000"
         stroke-width="0.25"
         linecap="square"
         id="path35184" /></pattern><symbol
       id="*Model_Space-5" /><symbol
       id="*Paper_Space-28" /><symbol
       id="*Paper_Space0-75" /><marker
       id="DistanceX-18"
       orient="auto"
       refX="0.0"
       refY="0.0"
       style="overflow:visible"><path
         d="M 3,-3 L -3,3 M 0,-5 L  0,5"
         style="stroke:#000000; stroke-width:0.5"
         id="path42223" /></marker><pattern
       id="Hatch-12"
       patternUnits="userSpaceOnUse"
       width="8"
       height="8"
       x="0"
       y="0"><path
         d="M8 4 l-4,4"
         stroke="#000000"
         stroke-width="0.25"
         linecap="square"
         id="path42226" /><path
         d="M6 2 l-4,4"
         stroke="#000000"
         stroke-width="0.25"
         linecap="square"
         id="path42228" /><path
         d="M4 0 l-4,4"
         stroke="#000000"
         stroke-width="0.25"
         linecap="square"
         id="path42230" /></pattern><symbol
       id="*Model_Space-73" /><symbol
       id="*Paper_Space-23" /><symbol
       id="*Paper_Space0-13" /><marker
       id="DistanceX-01"
       orient="auto"
       refX="0.0"
       refY="0.0"
       style="overflow:visible"><path
         d="M 3,-3 L -3,3 M 0,-5 L  0,5"
         style="stroke:#000000; stroke-width:0.5"
         id="path48512" /></marker><pattern
       id="Hatch-0"
       patternUnits="userSpaceOnUse"
       width="8"
       height="8"
       x="0"
       y="0"><path
         d="M8 4 l-4,4"
         stroke="#000000"
         stroke-width="0.25"
         linecap="square"
         id="path48515" /><path
         d="M6 2 l-4,4"
         stroke="#000000"
         stroke-width="0.25"
         linecap="square"
         id="path48517" /><path
         d="M4 0 l-4,4"
         stroke="#000000"
         stroke-width="0.25"
         linecap="square"
         id="path48519" /></pattern><symbol
       id="*Model_Space-738" /><symbol
       id="*Paper_Space-74" /><symbol
       id="*Paper_Space0-0" /><marker
       id="DistanceX-04"
       orient="auto"
       refX="0.0"
       refY="0.0"
       style="overflow:visible"><path
         d="M 3,-3 L -3,3 M 0,-5 L  0,5"
         style="stroke:#000000; stroke-width:0.5"
         id="path56073" /></marker><pattern
       id="Hatch-4"
       patternUnits="userSpaceOnUse"
       width="8"
       height="8"
       x="0"
       y="0"><path
         d="M8 4 l-4,4"
         stroke="#000000"
         stroke-width="0.25"
         linecap="square"
         id="path56076" /><path
         d="M6 2 l-4,4"
         stroke="#000000"
         stroke-width="0.25"
         linecap="square"
         id="path56078" /><path
         d="M4 0 l-4,4"
         stroke="#000000"
         stroke-width="0.25"
         linecap="square"
         id="path56080" /></pattern><symbol
       id="*Model_Space-7389" /><symbol
       id="*Paper_Space-46" /><symbol
       id="*Paper_Space0-77" /><linearGradient
       inkscape:collect="always"
       xlink:href="#linearGradient56845"
       id="linearGradient56847"
       x1="90.945503"
       y1="4.7165885"
       x2="3.8700216"
       y2="90.219879"
       gradientUnits="userSpaceOnUse" /><linearGradient
       inkscape:collect="always"
       xlink:href="#linearGradient60747"
       id="linearGradient56951"
       x1="90.945503"
       y1="4.7165885"
       x2="3.8700216"
       y2="90.219879"
       gradientUnits="userSpaceOnUse" /><linearGradient
       inkscape:collect="always"
       xlink:href="#linearGradient60741"
       id="linearGradient57055"
       x1="90.945503"
       y1="4.7165885"
       x2="3.8700216"
       y2="90.219879"
       gradientUnits="userSpaceOnUse" /><linearGradient
       inkscape:collect="always"
       xlink:href="#linearGradient60735"
       id="linearGradient57159"
       x1="90.945503"
       y1="4.7165885"
       x2="3.8700216"
       y2="90.219879"
       gradientUnits="userSpaceOnUse" /></defs><g
     inkscape:label="Layer 1"
     inkscape:groupmode="layer"
     id="layer1"
     transform="translate(-116.19832,-19.849053)"><path
       style="fill:#ffffff;stroke:#000000;stroke-width:0;stroke-dasharray:none;stroke-dashoffset:0"
       d="m 12.033339,64.520505 -3.6266428,-3.628155 1.2385063,-1.238506 1.2385065,-1.238506 1.846089,1.843206 c 1.015348,1.013764 1.907129,1.843207 1.981734,1.843207 0.07461,0 1.104497,-1.959199 2.288649,-4.353775 l 2.153003,-4.353774 h 1.973003 c 1.085152,0 1.973004,0.02709 1.973004,0.06021 0,0.119711 -7.317416,14.694251 -7.377519,14.694251 -0.03393,0 -1.69368,-1.632669 -3.688333,-3.628154 z"
       id="path11197"
       transform="matrix(0.26458333,0,0,0.26458333,116.19832,19.849053)" /><path
       style="fill:#ffffff;stroke:#000000;stroke-width:0;stroke-dasharray:none;stroke-dashoffset:0"
       d="m 12.033339,19.168691 -3.6266428,-3.628155 1.2385063,-1.238506 1.2385065,-1.238506 1.86345,1.860541 c 1.149997,1.148201 1.927494,1.835965 2.030723,1.796352 0.092,-0.0353 1.11757,-2.002216 2.279045,-4.370916 L 19.1687,8.042773 21.133945,8.0425807 c 1.080885,-1.058e-4 1.965246,0.0269 1.965246,0.060013 0,0.1197117 -7.317416,14.6942513 -7.377519,14.6942513 -0.03393,0 -1.69368,-1.632669 -3.688333,-3.628154 z"
       id="path11199"
       transform="matrix(0.26458333,0,0,0.26458333,116.19832,19.849053)" /><path
       style="fill:url(#linearGradient57159);stroke:#000000;stroke-width:0;stroke-dasharray:none;stroke-dashoffset:0;fill-opacity:1"
       d="M 4.4747123,47.770577 V 4.4142432 H 14.754457 25.034201 V 26.878068 49.341893 l 6.123183,6.124066 6.123183,6.124066 -1.013545,0.08233 c -8.397982,0.682198 -14.8302,2.2127 -16.557164,3.939663 -0.417776,0.417776 -0.480689,0.551872 -0.480689,1.024563 0,0.451952 0.07171,0.623251 0.424309,1.013533 3.390612,3.753002 26.136069,5.660096 43.415778,3.6402 6.781314,-0.792695 11.588656,-2.145135 12.939359,-3.6402 0.352595,-0.390282 0.424309,-0.561581 0.424309,-1.013533 0,-0.472691 -0.06291,-0.606787 -0.480689,-1.024563 -1.361444,-1.361443 -5.460284,-2.575332 -11.431721,-3.385554 -1.715588,-0.232776 -5.367572,-0.608469 -5.914716,-0.608469 -0.178396,0 1.544452,-1.796953 5.884927,-6.138052 L 70.627892,49.34189 V 26.878068 4.4142432 H 80.907636 91.187381 V 47.770577 91.126912 H 47.831046 4.4747123 Z"
       id="path56833"
       transform="matrix(0.26458333,0,0,0.26458333,116.19832,19.849053)" /><path
       style="fill:url(#linearGradient56951);stroke:#000000;stroke-width:0;stroke-dasharray:none;stroke-dashoffset:0;fill-opacity:1"
       d="m 34.114157,52.738638 -5.008248,-5.009339 0.221059,-0.584052 c 0.932166,-2.462843 3.571099,-7.794114 5.43735,-10.984734 2.234985,-3.821026 5.57402,-8.573327 8.250594,-11.742711 4.466899,-5.289338 6.282966,-7.634284 8.706966,-11.242625 1.493151,-2.222688 3.487861,-5.4844294 4.636623,-7.5817866 l 0.645842,-1.1791472 h 4.816294 4.816295 v 5.8225518 5.822553 l -0.682989,1.282565 c -1.65791,3.113347 -3.651682,6.401146 -5.544785,9.143546 -1.886669,2.733082 -3.36993,4.624415 -7.232585,9.222408 -5.027661,5.984781 -9.377407,12.665841 -12.912392,19.832988 -0.598729,1.213917 -1.100564,2.207121 -1.115187,2.207121 -0.01462,0 -2.2803,-2.254202 -5.034837,-5.009338 z"
       id="path56835"
       transform="matrix(0.26458333,0,0,0.26458333,116.19832,19.849053)" /><path
       style="fill:url(#linearGradient56847);stroke:#000000;stroke-width:0;stroke-dasharray:none;stroke-dashoffset:0;fill-opacity:1"
       d="m 48.375268,65.763761 c 0,-0.243347 1.358945,-3.23827 2.539113,-5.595846 3.360634,-6.713408 7.04156,-12.226747 12.234606,-18.325151 1.020404,-1.198302 2.209024,-2.626494 2.641378,-3.173761 l 0.786098,-0.99503 0.0316,4.986368 0.0316,4.986368 -9.132198,9.132197 c -5.022708,5.022709 -9.132197,9.065893 -9.132197,8.984855 z"
       id="path56837"
       transform="matrix(0.26458333,0,0,0.26458333,116.19832,19.849053)" /><path
       style="fill:url(#linearGradient57055);stroke:#000000;stroke-width:0;stroke-dasharray:none;stroke-dashoffset:0;fill-opacity:1"
       d="M 29.025161,13.988515 V 4.4142432 h 7.25629 c 3.99096,0 7.25629,0.035029 7.25629,0.077841 0,0.042813 -0.566017,0.9271731 -1.257816,1.9652453 -1.561569,2.3431997 -3.744745,5.2653895 -5.47598,7.3296215 -0.725215,0.864708 -1.935801,2.306896 -2.69019,3.204862 -0.75439,0.897966 -2.186877,2.721109 -3.183304,4.051429 -0.996427,1.33032 -1.832746,2.441439 -1.858488,2.469154 -0.02574,0.02772 -0.0468,-4.258032 -0.0468,-9.523881 z"
       id="path56839"
       transform="matrix(0.26458333,0,0,0.26458333,116.19832,19.849053)" /></g></svg>
