<?xml version="1.0" encoding="UTF-8" standalone="no"?>
<!-- Created with Inkscape (http://www.inkscape.org/) -->

<svg
   width="25.250195mm"
   height="25.278597mm"
   viewBox="0 0 25.250194 25.278597"
   version="1.1"
   id="svg5"
   xml:space="preserve"
   inkscape:version="1.2.2 (b0a8486541, 2022-12-01)"
   sodipodi:docname="paint.svg"
   xmlns:inkscape="http://www.inkscape.org/namespaces/inkscape"
   xmlns:sodipodi="http://sodipodi.sourceforge.net/DTD/sodipodi-0.dtd"
   xmlns:xlink="http://www.w3.org/1999/xlink"
   xmlns="http://www.w3.org/2000/svg"
   xmlns:svg="http://www.w3.org/2000/svg"><sodipodi:namedview
     id="namedview7"
     pagecolor="#ffffff"
     bordercolor="#000000"
     borderopacity="0.25"
     inkscape:showpageshadow="2"
     inkscape:pageopacity="0.0"
     inkscape:pagecheckerboard="0"
     inkscape:deskcolor="#d1d1d1"
     inkscape:document-units="mm"
     showgrid="false"
     inkscape:zoom="8.268688"
     inkscape:cx="32.955651"
     inkscape:cy="47.58917"
     inkscape:window-width="1920"
     inkscape:window-height="1001"
     inkscape:window-x="-9"
     inkscape:window-y="-9"
     inkscape:window-maximized="1"
     inkscape:current-layer="layer1" /><defs
     id="defs2"><linearGradient
       inkscape:collect="always"
       id="linearGradient74741"><stop
         style="stop-color:#ffff00;stop-opacity:1;"
         offset="0"
         id="stop74737" /><stop
         style="stop-color:#f4e3d7;stop-opacity:1"
         offset="1"
         id="stop74739" /></linearGradient><linearGradient
       inkscape:collect="always"
       id="linearGradient70399"><stop
         style="stop-color:#ffff00;stop-opacity:1;"
         offset="0"
         id="stop70395" /><stop
         style="stop-color:#f4e3d7;stop-opacity:1"
         offset="1"
         id="stop70397" /></linearGradient><marker
       id="DistanceX"
       orient="auto"
       refX="0"
       refY="0"
       style="overflow:visible"><path
         d="M 3,-3 -3,3 M 0,-5 V 5"
         style="stroke:#000000;stroke-width:0.5"
         id="path134" /></marker><pattern
       id="Hatch"
       patternUnits="userSpaceOnUse"
       width="8"
       height="8"
       x="0"
       y="0"><path
         d="M8 4 l-4,4"
         stroke="#000000"
         stroke-width="0.25"
         linecap="square"
         id="path137" /><path
         d="M6 2 l-4,4"
         stroke="#000000"
         stroke-width="0.25"
         linecap="square"
         id="path139" /><path
         d="M4 0 l-4,4"
         stroke="#000000"
         stroke-width="0.25"
         linecap="square"
         id="path141" /></pattern><symbol
       id="*Model_Space" /><symbol
       id="*Paper_Space" /><symbol
       id="*Paper_Space0" /><marker
       id="DistanceX-1"
       orient="auto"
       refX="0.0"
       refY="0.0"
       style="overflow:visible"><path
         d="M 3,-3 L -3,3 M 0,-5 L  0,5"
         style="stroke:#000000; stroke-width:0.5"
         id="path1130" /></marker><pattern
       id="Hatch-3"
       patternUnits="userSpaceOnUse"
       width="8"
       height="8"
       x="0"
       y="0"><path
         d="M8 4 l-4,4"
         stroke="#000000"
         stroke-width="0.25"
         linecap="square"
         id="path1133" /><path
         d="M6 2 l-4,4"
         stroke="#000000"
         stroke-width="0.25"
         linecap="square"
         id="path1135" /><path
         d="M4 0 l-4,4"
         stroke="#000000"
         stroke-width="0.25"
         linecap="square"
         id="path1137" /></pattern><symbol
       id="*Model_Space-7" /><symbol
       id="*Paper_Space-3" /><symbol
       id="*Paper_Space0-3" /><marker
       id="DistanceX-3"
       orient="auto"
       refX="0.0"
       refY="0.0"
       style="overflow:visible"><path
         d="M 3,-3 L -3,3 M 0,-5 L  0,5"
         style="stroke:#000000; stroke-width:0.5"
         id="path1617" /></marker><pattern
       id="Hatch-1"
       patternUnits="userSpaceOnUse"
       width="8"
       height="8"
       x="0"
       y="0"><path
         d="M8 4 l-4,4"
         stroke="#000000"
         stroke-width="0.25"
         linecap="square"
         id="path1620" /><path
         d="M6 2 l-4,4"
         stroke="#000000"
         stroke-width="0.25"
         linecap="square"
         id="path1622" /><path
         d="M4 0 l-4,4"
         stroke="#000000"
         stroke-width="0.25"
         linecap="square"
         id="path1624" /></pattern><symbol
       id="*Model_Space-9" /><symbol
       id="*Paper_Space-4" /><symbol
       id="*Paper_Space0-5" /><marker
       id="DistanceX-2"
       orient="auto"
       refX="0.0"
       refY="0.0"
       style="overflow:visible"><path
         d="M 3,-3 L -3,3 M 0,-5 L  0,5"
         style="stroke:#000000; stroke-width:0.5"
         id="path1916" /></marker><pattern
       id="Hatch-5"
       patternUnits="userSpaceOnUse"
       width="8"
       height="8"
       x="0"
       y="0"><path
         d="M8 4 l-4,4"
         stroke="#000000"
         stroke-width="0.25"
         linecap="square"
         id="path1919" /><path
         d="M6 2 l-4,4"
         stroke="#000000"
         stroke-width="0.25"
         linecap="square"
         id="path1921" /><path
         d="M4 0 l-4,4"
         stroke="#000000"
         stroke-width="0.25"
         linecap="square"
         id="path1923" /></pattern><symbol
       id="*Model_Space-8" /><symbol
       id="*Paper_Space-33" /><symbol
       id="*Paper_Space0-9" /><marker
       id="DistanceX-0"
       orient="auto"
       refX="0.0"
       refY="0.0"
       style="overflow:visible"><path
         d="M 3,-3 L -3,3 M 0,-5 L  0,5"
         style="stroke:#000000; stroke-width:0.5"
         id="path2166" /></marker><pattern
       id="Hatch-9"
       patternUnits="userSpaceOnUse"
       width="8"
       height="8"
       x="0"
       y="0"><path
         d="M8 4 l-4,4"
         stroke="#000000"
         stroke-width="0.25"
         linecap="square"
         id="path2169" /><path
         d="M6 2 l-4,4"
         stroke="#000000"
         stroke-width="0.25"
         linecap="square"
         id="path2171" /><path
         d="M4 0 l-4,4"
         stroke="#000000"
         stroke-width="0.25"
         linecap="square"
         id="path2173" /></pattern><symbol
       id="*Model_Space-79" /><symbol
       id="*Paper_Space-7" /><symbol
       id="*Paper_Space0-6" /><marker
       id="DistanceX-8"
       orient="auto"
       refX="0.0"
       refY="0.0"
       style="overflow:visible"><path
         d="M 3,-3 L -3,3 M 0,-5 L  0,5"
         style="stroke:#000000; stroke-width:0.5"
         id="path2418" /></marker><pattern
       id="Hatch-32"
       patternUnits="userSpaceOnUse"
       width="8"
       height="8"
       x="0"
       y="0"><path
         d="M8 4 l-4,4"
         stroke="#000000"
         stroke-width="0.25"
         linecap="square"
         id="path2421" /><path
         d="M6 2 l-4,4"
         stroke="#000000"
         stroke-width="0.25"
         linecap="square"
         id="path2423" /><path
         d="M4 0 l-4,4"
         stroke="#000000"
         stroke-width="0.25"
         linecap="square"
         id="path2425" /></pattern><symbol
       id="*Model_Space-75" /><symbol
       id="*Paper_Space-2" /><symbol
       id="*Paper_Space0-7" /><marker
       id="DistanceX-7"
       orient="auto"
       refX="0.0"
       refY="0.0"
       style="overflow:visible"><path
         d="M 3,-3 L -3,3 M 0,-5 L  0,5"
         style="stroke:#000000; stroke-width:0.5"
         id="path2771" /></marker><pattern
       id="Hatch-2"
       patternUnits="userSpaceOnUse"
       width="8"
       height="8"
       x="0"
       y="0"><path
         d="M8 4 l-4,4"
         stroke="#000000"
         stroke-width="0.25"
         linecap="square"
         id="path2774" /><path
         d="M6 2 l-4,4"
         stroke="#000000"
         stroke-width="0.25"
         linecap="square"
         id="path2776" /><path
         d="M4 0 l-4,4"
         stroke="#000000"
         stroke-width="0.25"
         linecap="square"
         id="path2778" /></pattern><symbol
       id="*Model_Space-792" /><symbol
       id="*Paper_Space-9" /><symbol
       id="*Paper_Space0-93" /><marker
       id="DistanceX-03"
       orient="auto"
       refX="0.0"
       refY="0.0"
       style="overflow:visible"><path
         d="M 3,-3 L -3,3 M 0,-5 L  0,5"
         style="stroke:#000000; stroke-width:0.5"
         id="path397" /></marker><pattern
       id="Hatch-6"
       patternUnits="userSpaceOnUse"
       width="8"
       height="8"
       x="0"
       y="0"><path
         d="M8 4 l-4,4"
         stroke="#000000"
         stroke-width="0.25"
         linecap="square"
         id="path400" /><path
         d="M6 2 l-4,4"
         stroke="#000000"
         stroke-width="0.25"
         linecap="square"
         id="path402" /><path
         d="M4 0 l-4,4"
         stroke="#000000"
         stroke-width="0.25"
         linecap="square"
         id="path404" /></pattern><symbol
       id="*Model_Space-2" /><symbol
       id="*Paper_Space-6" /><symbol
       id="*Paper_Space0-68" /><marker
       id="DistanceX-80"
       orient="auto"
       refX="0.0"
       refY="0.0"
       style="overflow:visible"><path
         d="M 3,-3 L -3,3 M 0,-5 L  0,5"
         style="stroke:#000000; stroke-width:0.5"
         id="path505" /></marker><pattern
       id="Hatch-54"
       patternUnits="userSpaceOnUse"
       width="8"
       height="8"
       x="0"
       y="0"><path
         d="M8 4 l-4,4"
         stroke="#000000"
         stroke-width="0.25"
         linecap="square"
         id="path508" /><path
         d="M6 2 l-4,4"
         stroke="#000000"
         stroke-width="0.25"
         linecap="square"
         id="path510" /><path
         d="M4 0 l-4,4"
         stroke="#000000"
         stroke-width="0.25"
         linecap="square"
         id="path512" /></pattern><symbol
       id="*Model_Space-74" /><symbol
       id="*Paper_Space-96" /><symbol
       id="*Paper_Space0-1" /><marker
       id="DistanceX-77"
       orient="auto"
       refX="0.0"
       refY="0.0"
       style="overflow:visible"><path
         d="M 3,-3 L -3,3 M 0,-5 L  0,5"
         style="stroke:#000000; stroke-width:0.5"
         id="path8445" /></marker><pattern
       id="Hatch-37"
       patternUnits="userSpaceOnUse"
       width="8"
       height="8"
       x="0"
       y="0"><path
         d="M8 4 l-4,4"
         stroke="#000000"
         stroke-width="0.25"
         linecap="square"
         id="path8448" /><path
         d="M6 2 l-4,4"
         stroke="#000000"
         stroke-width="0.25"
         linecap="square"
         id="path8450" /><path
         d="M4 0 l-4,4"
         stroke="#000000"
         stroke-width="0.25"
         linecap="square"
         id="path8452" /></pattern><symbol
       id="*Model_Space-84" /><symbol
       id="*Paper_Space-0" /><symbol
       id="*Paper_Space0-30" /><marker
       id="DistanceX-24"
       orient="auto"
       refX="0.0"
       refY="0.0"
       style="overflow:visible"><path
         d="M 3,-3 L -3,3 M 0,-5 L  0,5"
         style="stroke:#000000; stroke-width:0.5"
         id="path10544" /></marker><pattern
       id="Hatch-58"
       patternUnits="userSpaceOnUse"
       width="8"
       height="8"
       x="0"
       y="0"><path
         d="M8 4 l-4,4"
         stroke="#000000"
         stroke-width="0.25"
         linecap="square"
         id="path10547" /><path
         d="M6 2 l-4,4"
         stroke="#000000"
         stroke-width="0.25"
         linecap="square"
         id="path10549" /><path
         d="M4 0 l-4,4"
         stroke="#000000"
         stroke-width="0.25"
         linecap="square"
         id="path10551" /></pattern><symbol
       id="*Model_Space-1" /><symbol
       id="*Paper_Space-37" /><symbol
       id="*Paper_Space0-18" /><marker
       id="DistanceX-30"
       orient="auto"
       refX="0.0"
       refY="0.0"
       style="overflow:visible"><path
         d="M 3,-3 L -3,3 M 0,-5 L  0,5"
         style="stroke:#000000; stroke-width:0.5"
         id="path12601" /></marker><pattern
       id="Hatch-541"
       patternUnits="userSpaceOnUse"
       width="8"
       height="8"
       x="0"
       y="0"><path
         d="M8 4 l-4,4"
         stroke="#000000"
         stroke-width="0.25"
         linecap="square"
         id="path12604" /><path
         d="M6 2 l-4,4"
         stroke="#000000"
         stroke-width="0.25"
         linecap="square"
         id="path12606" /><path
         d="M4 0 l-4,4"
         stroke="#000000"
         stroke-width="0.25"
         linecap="square"
         id="path12608" /></pattern><symbol
       id="*Model_Space-0" /><symbol
       id="*Paper_Space-22" /><symbol
       id="*Paper_Space0-90" /><marker
       id="DistanceX-79"
       orient="auto"
       refX="0.0"
       refY="0.0"
       style="overflow:visible"><path
         d="M 3,-3 L -3,3 M 0,-5 L  0,5"
         style="stroke:#000000; stroke-width:0.5"
         id="path21536" /></marker><pattern
       id="Hatch-7"
       patternUnits="userSpaceOnUse"
       width="8"
       height="8"
       x="0"
       y="0"><path
         d="M8 4 l-4,4"
         stroke="#000000"
         stroke-width="0.25"
         linecap="square"
         id="path21539" /><path
         d="M6 2 l-4,4"
         stroke="#000000"
         stroke-width="0.25"
         linecap="square"
         id="path21541" /><path
         d="M4 0 l-4,4"
         stroke="#000000"
         stroke-width="0.25"
         linecap="square"
         id="path21543" /></pattern><symbol
       id="*Model_Space-3" /><symbol
       id="*Paper_Space-75" /><symbol
       id="*Paper_Space0-301" /><marker
       id="DistanceX-5"
       orient="auto"
       refX="0.0"
       refY="0.0"
       style="overflow:visible"><path
         d="M 3,-3 L -3,3 M 0,-5 L  0,5"
         style="stroke:#000000; stroke-width:0.5"
         id="path35177" /></marker><pattern
       id="Hatch-8"
       patternUnits="userSpaceOnUse"
       width="8"
       height="8"
       x="0"
       y="0"><path
         d="M8 4 l-4,4"
         stroke="#000000"
         stroke-width="0.25"
         linecap="square"
         id="path35180" /><path
         d="M6 2 l-4,4"
         stroke="#000000"
         stroke-width="0.25"
         linecap="square"
         id="path35182" /><path
         d="M4 0 l-4,4"
         stroke="#000000"
         stroke-width="0.25"
         linecap="square"
         id="path35184" /></pattern><symbol
       id="*Model_Space-5" /><symbol
       id="*Paper_Space-28" /><symbol
       id="*Paper_Space0-75" /><marker
       id="DistanceX-18"
       orient="auto"
       refX="0.0"
       refY="0.0"
       style="overflow:visible"><path
         d="M 3,-3 L -3,3 M 0,-5 L  0,5"
         style="stroke:#000000; stroke-width:0.5"
         id="path42223" /></marker><pattern
       id="Hatch-12"
       patternUnits="userSpaceOnUse"
       width="8"
       height="8"
       x="0"
       y="0"><path
         d="M8 4 l-4,4"
         stroke="#000000"
         stroke-width="0.25"
         linecap="square"
         id="path42226" /><path
         d="M6 2 l-4,4"
         stroke="#000000"
         stroke-width="0.25"
         linecap="square"
         id="path42228" /><path
         d="M4 0 l-4,4"
         stroke="#000000"
         stroke-width="0.25"
         linecap="square"
         id="path42230" /></pattern><symbol
       id="*Model_Space-73" /><symbol
       id="*Paper_Space-23" /><symbol
       id="*Paper_Space0-13" /><marker
       id="DistanceX-01"
       orient="auto"
       refX="0.0"
       refY="0.0"
       style="overflow:visible"><path
         d="M 3,-3 L -3,3 M 0,-5 L  0,5"
         style="stroke:#000000; stroke-width:0.5"
         id="path48512" /></marker><pattern
       id="Hatch-0"
       patternUnits="userSpaceOnUse"
       width="8"
       height="8"
       x="0"
       y="0"><path
         d="M8 4 l-4,4"
         stroke="#000000"
         stroke-width="0.25"
         linecap="square"
         id="path48515" /><path
         d="M6 2 l-4,4"
         stroke="#000000"
         stroke-width="0.25"
         linecap="square"
         id="path48517" /><path
         d="M4 0 l-4,4"
         stroke="#000000"
         stroke-width="0.25"
         linecap="square"
         id="path48519" /></pattern><symbol
       id="*Model_Space-738" /><symbol
       id="*Paper_Space-74" /><symbol
       id="*Paper_Space0-0" /><marker
       id="DistanceX-04"
       orient="auto"
       refX="0.0"
       refY="0.0"
       style="overflow:visible"><path
         d="M 3,-3 L -3,3 M 0,-5 L  0,5"
         style="stroke:#000000; stroke-width:0.5"
         id="path56073" /></marker><pattern
       id="Hatch-4"
       patternUnits="userSpaceOnUse"
       width="8"
       height="8"
       x="0"
       y="0"><path
         d="M8 4 l-4,4"
         stroke="#000000"
         stroke-width="0.25"
         linecap="square"
         id="path56076" /><path
         d="M6 2 l-4,4"
         stroke="#000000"
         stroke-width="0.25"
         linecap="square"
         id="path56078" /><path
         d="M4 0 l-4,4"
         stroke="#000000"
         stroke-width="0.25"
         linecap="square"
         id="path56080" /></pattern><symbol
       id="*Model_Space-7389" /><symbol
       id="*Paper_Space-46" /><symbol
       id="*Paper_Space0-77" /><marker
       id="DistanceX-76"
       orient="auto"
       refX="0.0"
       refY="0.0"
       style="overflow:visible"><path
         d="M 3,-3 L -3,3 M 0,-5 L  0,5"
         style="stroke:#000000; stroke-width:0.5"
         id="path63872" /></marker><pattern
       id="Hatch-26"
       patternUnits="userSpaceOnUse"
       width="8"
       height="8"
       x="0"
       y="0"><path
         d="M8 4 l-4,4"
         stroke="#000000"
         stroke-width="0.25"
         linecap="square"
         id="path63875" /><path
         d="M6 2 l-4,4"
         stroke="#000000"
         stroke-width="0.25"
         linecap="square"
         id="path63877" /><path
         d="M4 0 l-4,4"
         stroke="#000000"
         stroke-width="0.25"
         linecap="square"
         id="path63879" /></pattern><symbol
       id="*Model_Space-4" /><symbol
       id="*Paper_Space-5" /><symbol
       id="*Paper_Space0-2" /><marker
       id="DistanceX-32"
       orient="auto"
       refX="0.0"
       refY="0.0"
       style="overflow:visible"><path
         d="M 3,-3 L -3,3 M 0,-5 L  0,5"
         style="stroke:#000000; stroke-width:0.5"
         id="path69549" /></marker><pattern
       id="Hatch-66"
       patternUnits="userSpaceOnUse"
       width="8"
       height="8"
       x="0"
       y="0"><path
         d="M8 4 l-4,4"
         stroke="#000000"
         stroke-width="0.25"
         linecap="square"
         id="path69552" /><path
         d="M6 2 l-4,4"
         stroke="#000000"
         stroke-width="0.25"
         linecap="square"
         id="path69554" /><path
         d="M4 0 l-4,4"
         stroke="#000000"
         stroke-width="0.25"
         linecap="square"
         id="path69556" /></pattern><symbol
       id="*Model_Space-83" /><symbol
       id="*Paper_Space-00" /><symbol
       id="*Paper_Space0-8" /><linearGradient
       inkscape:collect="always"
       xlink:href="#linearGradient70399"
       id="linearGradient70401"
       x1="90.582687"
       y1="4.3537741"
       x2="5.4422178"
       y2="89.857063"
       gradientUnits="userSpaceOnUse" /><linearGradient
       inkscape:collect="always"
       xlink:href="#linearGradient74741"
       id="linearGradient70517"
       x1="90.582687"
       y1="4.3537741"
       x2="5.4422178"
       y2="89.857063"
       gradientUnits="userSpaceOnUse" /></defs><g
     inkscape:label="Layer 1"
     inkscape:groupmode="layer"
     id="layer1"
     transform="translate(-116.19832,-19.849053)"><path
       style="fill:#ffffff;stroke:#000000;stroke-width:0;stroke-dasharray:none;stroke-dashoffset:0"
       d="m 12.033339,19.168691 -3.6266428,-3.628155 1.2385063,-1.238506 1.2385065,-1.238506 1.86345,1.860541 c 1.149997,1.148201 1.927494,1.835965 2.030723,1.796352 0.092,-0.0353 1.11757,-2.002216 2.279045,-4.370916 L 19.1687,8.042773 21.133945,8.0425807 c 1.080885,-1.058e-4 1.965246,0.0269 1.965246,0.060013 0,0.1197117 -7.317416,14.6942513 -7.377519,14.6942513 -0.03393,0 -1.69368,-1.632669 -3.688333,-3.628154 z"
       id="path11199"
       transform="matrix(0.26458333,0,0,0.26458333,116.19832,19.849053)" /><path
       style="fill:url(#linearGradient70401);stroke:#000000;stroke-width:0;stroke-dasharray:none;stroke-dashoffset:0;fill-opacity:1"
       d="M 86.531134,90.854801 C 86.501982,90.771656 84.571702,84.46678 82.241625,76.843967 L 78.00512,62.984305 V 61.75693 60.529554 h 1.874542 1.874541 v -1.995479 -1.99548 H 79.879662 78.00512 v -1.33032 -1.33032 h -7.080654 -7.080653 l 0.036,-0.75247 0.03601,-0.752471 6.107378,-2.566072 6.107377,-2.566074 0.03063,-18.080043 0.03063,-18.080044 -0.514382,-0.06345 c -0.282909,-0.0349 -2.691267,-0.147557 -5.351907,-0.250357 -2.66064,-0.1028 -5.368143,-0.220676 -6.016674,-0.261946 l -1.179147,-0.07504 V 9.4175979 8.4052029 h -3.93049 -3.930491 v 1.012395 1.0123951 l -1.179147,0.07478 c -0.648531,0.04113 -3.301612,0.158582 -5.895736,0.261007 -2.594124,0.102425 -5.002305,0.215756 -5.351514,0.251847 l -0.634925,0.06562 v 18.060802 18.060803 l 1.904776,0.802019 c 1.047627,0.441111 3.809552,1.602795 6.137612,2.58152 l 4.232836,1.779497 0.03601,0.755034 0.036,0.755033 h -4.420013 -4.420015 v -2.116418 -2.116418 h -3.446737 -3.446738 l 0.0013,0.99774 c 0.0013,0.982479 0.0115,1.016142 0.667795,2.200878 l 0.666494,1.203137 -0.03287,2.151679 -0.03287,2.151679 L 22.282858,48.118878 4.4747123,37.887526 V 21.090415 4.2933051 H 47.770577 91.066442 V 47.649639 91.005973 h -2.241151 c -1.684027,0 -2.254328,-0.03758 -2.294157,-0.151172 z"
       id="path70391"
       transform="matrix(0.26458333,0,0,0.26458333,116.19832,19.849053)" /><path
       style="fill:url(#linearGradient70517);stroke:#000000;stroke-width:0;stroke-dasharray:none;stroke-dashoffset:0;fill-opacity:1"
       d="M 4.4795642,85.110238 4.484416,79.214502 22.237718,69.025461 C 32.002033,63.421488 40.027122,58.83642 40.071246,58.83642 c 0.04412,0 0.08023,0.958765 0.08023,2.130589 v 2.130589 l -0.66516,1.213055 c -0.656341,1.196971 -0.66516,1.226446 -0.66516,2.223185 v 1.01013 h 3.446738 3.446737 v -2.176887 -2.176887 h 8.888956 c 4.888926,0 8.887784,0.04082 8.886352,0.0907 -0.0014,0.04989 -0.622174,2.077113 -1.379427,4.504947 -0.757253,2.427833 -1.358347,4.433298 -1.335763,4.456588 0.121118,0.124903 0.411745,-0.366127 1.86781,-3.155762 0.876851,-1.679936 1.632851,-3.094484 1.68,-3.14344 0.04715,-0.04895 0.671985,1.82861 1.388522,4.172367 0.716538,2.343757 2.015524,6.587925 2.886634,9.431484 l 1.583838,5.170107 h 0.988068 0.988069 l 0.464769,1.541961 c 0.255622,0.848079 0.496889,1.58049 0.536149,1.62758 0.06157,0.07385 3.604814,-0.937934 3.751139,-1.071146 0.02944,-0.02681 -0.06579,-0.454341 -0.211641,-0.950079 -0.145848,-0.495738 -0.265179,-0.95691 -0.265179,-1.024829 0,-0.07786 0.596403,-0.123487 1.613985,-0.123487 h 1.613986 l 0.925716,3.017204 c 0.509143,1.659462 0.925716,3.074439 0.925716,3.144392 0,0.08869 -11.658446,0.127188 -38.518807,0.127188 H 4.4747123 Z"
       id="path70393"
       transform="matrix(0.26458333,0,0,0.26458333,116.19832,19.849053)" /></g></svg>
